<svg xmlns="http://www.w3.org/2000/svg" width="14" height="14" viewBox="0 0 14 14"><defs><clipPath id="j16ca"><path fill="#fff" d="M7 14A7 7 0 1 0 7 0a7 7 0 0 0 0 14z"/></clipPath><clipPath id="j16cb"><path fill="#fff" d="M7 11a4 4 0 1 0 0-8 4 4 0 0 0 0 8z"/></clipPath></defs><g><g><path fill="#0d8572" d="M7 14A7 7 0 1 0 7 0a7 7 0 0 0 0 14z"/><path fill="none" stroke="#fff" stroke-miterlimit="20" stroke-width="2" d="M7 14A7 7 0 1 0 7 0a7 7 0 0 0 0 14z" clip-path="url(&quot;#j16ca&quot;)"/></g><g><path fill="#fff" d="M7 11a4 4 0 1 0 0-8 4 4 0 0 0 0 8z"/><path fill="none" stroke="#fff" stroke-miterlimit="20" stroke-width="2" d="M7 11a4 4 0 1 0 0-8 4 4 0 0 0 0 8z" clip-path="url(&quot;#j16cb&quot;)"/></g></g></svg>